<svg width="767" height="529" viewBox="0 0 767 529" fill="none" xmlns="http://www.w3.org/2000/svg">
<g clip-path="url(#clip0_1_5)">
<path d="M712.494 391.943C712.494 397.984 561.986 402.877 376.326 402.877C190.663 402.877 40.1537 397.984 40.1537 391.943C40.1537 385.905 190.663 381.012 376.326 381.012C561.986 381.012 712.494 385.905 712.494 391.943Z" fill="#DAD8DC"/>
<path d="M596.315 314.207V324.052C596.315 326.638 595.907 329.155 595.118 331.56C591.123 343.744 577.65 352.712 561.625 352.712H170.868C154.841 352.712 141.346 343.744 137.346 331.56C136.557 329.155 136.149 326.638 136.149 324.052V314.207C136.149 298.382 151.686 285.547 170.868 285.547H561.625C580.782 285.547 596.315 298.382 596.315 314.207Z" fill="#DDD7E0"/>
<path d="M190.564 387.493H189.095C185.486 387.493 182.434 384.824 181.952 381.247L176.828 343.219H199.404L197.765 380.602C197.596 384.455 194.422 387.493 190.564 387.493Z" fill="#BBAFC0"/>
<path d="M542.05 387.493H543.519C547.127 387.493 550.18 384.824 550.661 381.247L555.785 343.219H533.209L534.85 380.602C535.018 384.455 538.191 387.493 542.05 387.493Z" fill="#BBAFC0"/>
<path d="M594.7 331.56C590.705 343.744 577.263 352.712 561.264 352.712H171.228C155.231 352.712 141.761 343.744 137.768 331.56H594.7Z" fill="#BBAFC0"/>
<path d="M582.34 294.801C582.34 301.134 550.593 308.072 511.434 308.072C472.273 308.072 440.527 301.134 440.527 294.801C440.527 288.468 472.273 283.335 511.434 283.335C550.593 283.335 582.34 288.468 582.34 294.801Z" fill="#BBAFC0"/>
<path d="M292.626 305.428C292.626 311.76 260.88 316.894 221.721 316.894C182.56 316.894 150.815 311.76 150.815 305.428C150.815 299.095 182.56 293.962 221.721 293.962C260.88 293.962 292.626 299.095 292.626 305.428Z" fill="#BBAFC0"/>
<path d="M392.958 402.826C392.958 402.826 379.571 418.033 382.612 419.286C385.654 420.54 411.387 416.719 410.738 413.964C410.086 411.209 396.041 402.616 392.958 402.826Z" fill="white"/>
<path d="M410.731 232.333C410.731 232.333 438.287 242.259 461.663 237.346C485.793 232.273 496.574 217.062 496.574 217.062L492.655 165.777C492.655 165.777 459.649 184.377 445.162 193.57C433.404 201.034 417.794 210.913 417.794 210.913L410.731 232.333Z" fill="#F7B369"/>
<path d="M431.639 388.04L424.293 423.269L387.092 415.513L393.133 382.332L431.639 388.04Z" fill="#F48462"/>
<path d="M420.205 449.479C422.83 449.511 425.015 447.475 425.177 444.847C425.807 434.454 428.578 411.241 426.558 411.12C423.985 410.967 397.727 416.06 397.727 416.06C397.727 416.06 397.86 401.617 387.034 403.567C378.728 405.066 368.688 413.662 364.467 417.578C363.127 418.822 361.47 419.646 359.672 419.957C351.939 421.293 330.602 425.925 329.664 436.477C328.512 449.381 334.121 448.229 336.697 448.382C338.908 448.515 402.298 449.269 420.205 449.479Z" fill="#5C69A5"/>
<path d="M502.145 342.999L519.533 381.693L482.898 398.159L465.777 362.278L502.145 342.999Z" fill="#F48462"/>
<path d="M528.712 404.862C530.966 403.507 531.75 400.625 530.501 398.306C525.57 389.137 515.703 367.941 513.925 368.901C511.654 370.129 492.009 388.278 492.009 388.278C492.009 388.278 484.521 375.929 476.345 383.287C470.069 388.934 466.057 401.525 464.53 407.08C464.046 408.842 463.073 410.413 461.705 411.625C455.832 416.833 440.133 432.005 444.889 441.472C450.704 453.042 454.865 449.114 457.137 447.889C459.083 446.836 513.378 414.11 528.712 404.862Z" fill="#5C69A5"/>
<path d="M461.705 412.23C461.501 412.23 461.301 412.125 461.186 411.934C461.015 411.648 461.11 411.279 461.396 411.107L474.121 403.51C474.404 403.338 474.777 403.43 474.948 403.717C475.12 404.003 475.028 404.376 474.742 404.544L462.016 412.144C461.918 412.201 461.813 412.23 461.705 412.23Z" fill="#F7B369"/>
<path d="M476.816 281.779L518.255 360.684L456.952 390.181L431.941 342.446L449.327 284.091L476.816 281.779Z" fill="#7B9CD1"/>
<path d="M553.003 251.617C553.003 251.617 553.976 294.721 541.25 299.066C528.027 303.58 467.975 307.75 464.205 310.843C460.432 313.937 435.125 399.941 435.125 399.941L366.28 393.512C366.28 393.512 392.398 284.58 411.874 269.294C430.754 254.475 491.927 251.617 491.927 251.617H553.003Z" fill="#92B4EA"/>
<path d="M448.073 357.732C448.016 357.732 447.958 357.726 447.901 357.706C447.583 357.614 447.399 357.277 447.494 356.959C447.943 355.426 458.552 319.36 461.32 316.058C464.088 312.755 485.033 307.769 487.409 307.21C487.74 307.134 488.058 307.336 488.138 307.66C488.214 307.985 488.011 308.31 487.686 308.386C481.33 309.877 464.371 314.299 462.246 316.834C460.082 319.414 451.7 346.919 448.652 357.299C448.573 357.563 448.334 357.732 448.073 357.732Z" fill="#F7B369"/>
<path d="M452.19 301.715C451.909 301.715 451.541 301.83 451.114 302.365C450.612 303.005 450.44 303.731 450.595 304.586C451.27 308.314 457.613 312.96 460.579 314.95C458.447 309.46 454.827 302.134 452.377 301.731C452.32 301.722 452.257 301.715 452.19 301.715ZM461.784 317.049C461.676 317.049 461.565 317.021 461.469 316.962C461.018 316.688 450.383 310.191 449.406 304.8C449.19 303.602 449.447 302.53 450.169 301.618C451.019 300.542 451.945 300.44 452.574 300.539C456.879 301.247 461.804 314.71 462.35 316.243C462.436 316.483 462.363 316.752 462.166 316.914C462.054 317.004 461.918 317.049 461.784 317.049Z" fill="#F7B369"/>
<path d="M498.878 134.2C498.878 134.2 495.146 125.974 495.849 122.37C496.549 118.765 502.73 106.894 521.792 112.282C536.006 116.3 537.496 135.618 534.568 142.128C527.034 158.892 511.816 150.918 511.816 150.918C511.816 150.918 487.511 143.522 498.878 134.2Z" fill="#222222"/>
<path d="M554.29 253.984C554.29 253.984 554.253 181.379 549.96 176.466C536.738 161.315 505.005 156.228 489.55 167.761C479.876 174.978 481.304 196.793 481.756 229.181C482.011 247.407 482.723 253.984 482.723 253.984H554.29Z" fill="#F7B369"/>
<path d="M501.203 153.463L501.184 153.824L501.123 160.646L501.054 165.994C501.054 165.994 500.529 167.21 506.764 167.142C515.118 167.018 517.994 163.585 517.994 163.585L519.021 151.096L516.473 151.441L501.203 153.463Z" fill="#FCBCA9"/>
<path d="M501.184 153.824L501.123 160.646C505.196 160.372 512.652 159.017 515.967 152.813C516.225 152.309 516.4 151.852 516.47 151.467L501.216 153.722L501.184 153.824Z" fill="#222222"/>
<path d="M500.297 121.111C500.297 121.111 491.602 138.414 493.858 148.519C496.11 158.624 505.266 157.545 510.795 155.912C516.324 154.279 519.021 151.087 519.021 151.087C519.021 151.087 524.002 153.078 527.641 148.546C531.29 144.015 529.491 138.49 526.663 137.094C523.834 135.697 520.281 137.602 520.281 137.602L523.254 132.597C523.254 132.597 513.314 105.818 500.297 121.111Z" fill="#FCBCA9"/>
<path d="M520.281 137.602C520.281 137.602 512.732 133.273 510.197 127.57C507.661 121.867 507.686 119.067 507.686 119.067C507.686 119.067 506.382 122.668 503.522 123.395C500.659 124.123 498.903 124.137 498.903 124.137L496.858 129.246L498.012 119.39C498.012 119.39 505.848 115.666 506.872 115.714C507.897 115.762 521.293 116.21 522.005 117.023C522.715 117.835 526.313 128.053 526.313 128.053L526.381 132.595L520.281 137.602Z" fill="#222222"/>
<path d="M506.102 167.696C502.33 167.696 499.778 166.746 499.577 166.668C499.288 166.556 499.142 166.232 499.253 165.943C499.368 165.653 499.696 165.51 499.982 165.619C500.074 165.654 509.229 169.041 518.703 162.556C518.958 162.38 519.311 162.446 519.486 162.702C519.661 162.958 519.594 163.308 519.34 163.483C514.459 166.825 509.719 167.696 506.102 167.696Z" fill="white"/>
<path d="M481.756 232.514C481.444 232.514 481.193 232.261 481.193 231.952V215.5C480.745 214.649 478.483 210.004 478.486 202.542C478.492 194.441 483.741 184.529 483.967 184.112C484.11 183.836 484.454 183.734 484.728 183.881C485.001 184.027 485.103 184.367 484.956 184.641C484.906 184.741 479.615 194.725 479.612 202.544C479.606 210.334 482.218 215.032 482.243 215.078C482.291 215.163 482.319 215.259 482.319 215.356V231.952C482.319 232.261 482.065 232.514 481.756 232.514Z" fill="white"/>
<path d="M520.011 146.193C519.864 146.193 519.718 146.135 519.607 146.019C519.393 145.795 519.4 145.44 519.622 145.225L525.22 139.874C525.439 139.66 525.795 139.666 526.015 139.892C526.229 140.117 526.219 140.472 525.994 140.687L520.399 146.037C520.291 146.141 520.15 146.193 520.011 146.193Z" fill="#222222"/>
<path d="M525.968 144.925C525.91 144.921 521.735 144.487 521.735 144.487C521.426 144.455 521.2 144.179 521.232 143.87C521.267 143.56 521.563 143.341 521.85 143.369L526.025 143.804C526.333 143.836 526.558 144.112 526.527 144.42C526.496 144.709 526.25 144.925 525.968 144.925Z" fill="#222222"/>
<path d="M510.852 129.397C510.83 129.397 510.804 129.395 510.779 129.392L506.389 128.816C506.08 128.776 505.864 128.494 505.905 128.186C505.947 127.879 506.22 127.668 506.535 127.702L510.925 128.278C511.23 128.318 511.45 128.601 511.409 128.908C511.37 129.191 511.129 129.397 510.852 129.397Z" fill="#222222"/>
<path d="M500.774 128.245H497.485C497.172 128.245 496.921 127.993 496.921 127.683C496.921 127.373 497.172 127.121 497.485 127.121H500.774C501.086 127.121 501.337 127.373 501.337 127.683C501.337 127.993 501.086 128.245 500.774 128.245Z" fill="#222222"/>
<path d="M499.129 142.47C498.9 142.47 498.687 142.329 498.601 142.101C497.02 137.791 501.894 133.993 502.101 133.833C502.345 133.647 502.698 133.69 502.89 133.937C503.077 134.183 503.029 134.536 502.784 134.725C502.739 134.759 498.359 138.181 499.657 141.715C499.762 142.006 499.612 142.329 499.323 142.435C499.259 142.46 499.193 142.47 499.129 142.47Z" fill="#222222"/>
<path d="M508.205 137.118C508.17 137.118 508.138 137.116 508.106 137.11C507.801 137.056 507.598 136.764 507.652 136.459L508.189 133.383L506.761 132.056C506.532 131.844 506.519 131.489 506.732 131.262C506.939 131.035 507.299 131.02 507.524 131.232L509.179 132.767C509.318 132.897 509.382 133.089 509.35 133.277L508.756 136.653C508.708 136.926 508.472 137.118 508.205 137.118Z" fill="#222222"/>
<path d="M497.72 135.942C497.685 135.942 497.653 135.94 497.618 135.934C497.312 135.88 497.109 135.588 497.163 135.283L497.707 132.207L496.276 130.88C496.046 130.669 496.034 130.313 496.244 130.086C496.453 129.858 496.81 129.845 497.039 130.056L498.693 131.591C498.833 131.72 498.9 131.913 498.865 132.101L498.27 135.478C498.222 135.75 497.987 135.942 497.72 135.942Z" fill="#222222"/>
<path d="M447.488 195.825C447.319 198.579 447.354 202.76 448.614 203.929C448.862 204.16 449.148 204.238 449.504 204.168C449.848 204.102 450.055 203.95 450.173 203.675C450.764 202.284 449.081 198.584 447.488 195.825ZM449.266 205.316C448.735 205.316 448.251 205.125 447.851 204.753C445.585 202.653 446.412 194.883 446.514 194.003C446.543 193.767 446.715 193.575 446.947 193.521C447.176 193.467 447.418 193.563 447.545 193.763C448.042 194.534 452.377 201.373 451.204 204.117C450.94 204.737 450.427 205.136 449.718 205.272C449.565 205.301 449.412 205.316 449.266 205.316Z" fill="white"/>
<path d="M525.607 118.937C525.607 118.937 532.445 97.3675 544.497 105.218C559.628 115.075 541.856 134.229 531.096 127.682C520.332 121.136 525.607 118.937 525.607 118.937Z" fill="#222222"/>
<path d="M503.503 147.504C503.144 147.504 502.765 147.468 502.361 147.387C502.059 147.326 501.862 147.03 501.922 146.725C501.982 146.422 502.275 146.221 502.584 146.286C505.135 146.801 506.656 145.005 506.672 144.986C506.872 144.747 507.229 144.718 507.461 144.915C507.699 145.114 507.731 145.468 507.534 145.707C507.464 145.79 506 147.504 503.503 147.504Z" fill="#222222"/>
<path d="M471.347 216.518C471.347 216.518 475.146 218.677 476.758 225.001C478.371 231.325 474.054 230.326 474.054 230.326L470.596 228.921L471.347 216.518Z" fill="#FCBCA9"/>
<path d="M466.572 249.706C466.572 249.706 469.041 256.283 480.134 258.26C491.904 260.357 501.123 254.522 501.123 254.522L495.14 235.801L482.596 229.551L466.572 249.706Z" fill="#FCBCA9"/>
<path d="M472.932 225.192C472.932 243.089 458.425 257.597 440.527 257.597C422.633 257.597 408.123 243.089 408.123 225.192C408.123 207.295 422.633 192.788 440.527 192.788C458.425 192.788 472.932 207.295 472.932 225.192Z" fill="#FCA338"/>
<path d="M467.374 225.192C467.374 240.018 455.355 252.037 440.527 252.037C425.702 252.037 413.684 240.018 413.684 225.192C413.684 210.366 425.702 198.347 440.527 198.347C455.355 198.347 467.374 210.366 467.374 225.192Z" fill="#FFB655"/>
<path d="M419.664 217.297C419.604 217.297 419.54 217.289 419.48 217.274C419.063 217.173 418.805 216.752 418.907 216.334C418.993 215.985 421.087 207.752 430.054 204.323C430.455 204.17 430.907 204.37 431.06 204.772C431.216 205.174 431.015 205.624 430.611 205.777C422.397 208.917 420.437 216.624 420.422 216.702C420.336 217.057 420.014 217.297 419.664 217.297Z" fill="#FFDD92"/>
<path d="M404.804 223.435C404.804 223.435 393.661 225.734 397.587 230.604C401.515 235.473 422.105 236.128 423.733 229.853C425.362 223.578 404.804 223.435 404.804 223.435Z" fill="#FCBCA9"/>
<path d="M405.193 214.029C405.193 214.029 394.049 216.328 397.975 221.198C401.9 226.067 422.493 226.721 424.122 220.447C425.75 214.172 405.193 214.029 405.193 214.029Z" fill="#FCBCA9"/>
<path d="M411.075 205.683C408.562 205.089 405.928 205.052 403.462 205.827C401.283 206.513 399.441 207.804 400.784 210.223C403.475 215.062 421.331 218.737 423.695 213.51C425.451 209.632 416.044 206.857 411.075 205.683Z" fill="#FCBCA9"/>
<path d="M416.858 225.166C416.823 225.165 402.387 224.271 402.387 224.271C402.078 224.251 401.843 223.986 401.862 223.675C401.881 223.367 402.155 223.139 402.457 223.149L416.894 224.043C417.202 224.063 417.438 224.329 417.418 224.639C417.4 224.937 417.154 225.166 416.858 225.166Z" fill="#222222"/>
<path d="M418.424 216.562C418.395 216.562 418.369 216.559 418.341 216.555L405.11 214.585C404.802 214.539 404.592 214.253 404.636 213.946C404.681 213.638 404.967 213.423 405.276 213.473L418.506 215.444C418.812 215.49 419.025 215.775 418.981 216.082C418.939 216.361 418.697 216.562 418.424 216.562Z" fill="#222222"/>
<path d="M539.985 168.59C539.985 168.59 573.891 184.377 568.207 232.408C564.27 265.681 495.76 259.727 495.76 259.727L492.566 228.12C492.566 228.12 528.038 218.495 531.023 216.867C536.801 213.718 539.985 168.59 539.985 168.59Z" fill="#F7B369"/>
<path d="M493.597 229.743C493.384 229.743 493.18 229.623 493.084 229.417C492.954 229.136 493.078 228.802 493.358 228.671C493.572 228.572 515.007 218.686 536.921 214.803C537.224 214.753 537.517 214.952 537.569 215.258C537.627 215.563 537.423 215.855 537.114 215.909C515.353 219.767 494.045 229.592 493.832 229.69C493.756 229.726 493.677 229.743 493.597 229.743Z" fill="white"/>
<path d="M531.53 209.763C529.497 209.763 526.642 213.692 524.707 217.186C528.738 214.363 532.44 211.151 532.299 210.066C532.289 210.033 532.278 209.93 531.98 209.833C531.834 209.786 531.687 209.763 531.53 209.763ZM523.196 219.452C523.066 219.452 522.935 219.405 522.829 219.312C522.639 219.146 522.581 218.875 522.692 218.648C523.244 217.493 528.195 207.41 532.33 208.766C533.177 209.043 533.371 209.607 533.413 209.919C533.742 212.443 525.91 217.783 523.505 219.359C523.411 219.421 523.301 219.452 523.196 219.452Z" fill="white"/>
<path d="M482.596 229.551C482.596 229.551 455.454 221.98 453.335 225.978C451.764 228.94 455.975 231.556 455.975 231.556C455.975 231.556 448.493 231.23 449.673 234.558C450.853 237.886 456.154 239.83 456.154 239.83C456.154 239.83 445.767 239.877 452.043 246.309C457.143 251.532 470.154 253.142 480.907 251.472C491.66 249.802 482.596 229.551 482.596 229.551Z" fill="#FCBCA9"/>
<path d="M473.803 234.97C473.774 234.97 473.746 234.967 473.717 234.963L455.775 232.265C455.469 232.219 455.257 231.933 455.304 231.626C455.349 231.319 455.641 231.107 455.944 231.154L473.886 233.852C474.191 233.899 474.404 234.185 474.357 234.492C474.315 234.77 474.077 234.97 473.803 234.97Z" fill="#222222"/>
<path d="M472.935 242.596C472.909 242.596 472.883 242.594 472.861 242.591L454.346 240.212C454.038 240.173 453.821 239.891 453.859 239.584C453.898 239.276 454.19 239.062 454.49 239.097L473.005 241.476C473.313 241.516 473.53 241.798 473.491 242.105C473.453 242.389 473.211 242.596 472.935 242.596Z" fill="#222222"/>
<path d="M383.335 383.847C383.335 383.847 395.245 398.032 398.022 399.384C400.8 400.739 429.787 410.645 435.329 416.121C440.871 421.599 441.221 432.313 439.627 433.312C438.03 434.311 342.542 432.876 342.542 432.876L341.749 386.825L383.335 383.847Z" fill="#EFA459"/>
<path d="M395.481 381.846C395.481 381.846 360.745 285.806 333.567 267.378C311.465 252.391 254.667 252.288 254.667 252.288L300.323 337.264L333.567 394.956L395.481 381.846Z" fill="#7B9CD1"/>
<path d="M296.291 140.976C296.291 140.976 316.064 131.096 323.384 133.224C330.704 135.353 326.619 139.913 326.619 139.913C326.619 139.913 329.215 142.804 327.755 145.688C326.298 148.572 326.298 148.572 326.298 148.572C326.298 148.572 327.434 149.722 326.619 153.798C325.808 157.874 315.572 171.207 302.452 166.453C289.334 161.7 296.291 140.976 296.291 140.976Z" fill="#EB9F88"/>
<path d="M246.164 166.014L234.179 156.454L219.073 155.308L205.144 160.482L212.436 250.662C212.436 250.662 234.379 256.647 248.862 249.009C263.345 241.37 246.164 166.014 246.164 166.014Z" fill="#F7B369"/>
<path d="M190.206 164.007C197.012 157.695 208.097 155.955 214.611 155.48C214.611 155.48 213.013 198.181 215.264 224.464C216.536 239.318 217.309 249.655 217.739 255.844C202.099 256.231 184.617 255.742 184.617 255.742C184.617 255.742 180.134 173.341 190.206 164.007Z" fill="#5C69A5"/>
<path d="M260.489 223.341C260.402 239.199 260.034 252.062 260.034 252.062C260.034 252.062 257.094 254.116 246.367 255.993C245.824 249.179 242.828 225.963 240.956 208.626C238.559 186.454 234.179 156.454 234.179 156.454L214.611 155.489C216.588 155.344 218.163 155.308 219.073 155.308C219.615 155.308 219.93 155.326 219.93 155.326C219.93 155.326 242.012 156.228 252.458 161.803C252.458 161.803 252.72 161.947 253.193 162.2C254.978 163.264 256.377 164.491 257.147 165.88C260.191 171.347 260.647 200.447 260.489 223.341Z" fill="#5C69A5"/>
<path d="M202.573 157.539C202.573 157.539 177.889 161.481 163.269 180.905C150.735 197.556 146.723 216.499 146.723 216.499C146.723 216.499 160.603 214.166 169.009 214.253C177.415 214.341 189.504 215.336 189.504 215.336L202.573 157.539Z" fill="#5C69A5"/>
<path d="M241.434 119.11C241.434 119.11 246.39 102.901 239.105 99.5221C231.821 96.1425 227.11 105.608 227.11 105.608C227.11 105.608 210.631 106.692 204.182 115.359C197.734 124.025 212.747 139.804 212.747 139.804L241.434 119.11Z" fill="#222222"/>
<path d="M215.589 143.212L214.306 158.344C214.306 158.344 216.666 162.924 225.457 164.395C232.006 165.489 234.448 164.195 234.448 164.195L234.179 156.454L233.906 148.903L218.22 144.032L215.589 143.212Z" fill="#FCBCA9"/>
<path d="M218.22 144.032C218.223 144.449 218.339 144.95 218.536 145.53C221.281 153.375 230.4 155.79 234.179 156.454L233.906 148.903L218.22 144.032Z" fill="#222222"/>
<path d="M240.203 114.7C240.203 114.7 246.536 134.344 242.512 144.619C238.488 154.895 229.023 152.263 223.465 149.641C217.906 147.019 215.586 143.215 215.586 143.215C215.586 143.215 210.019 144.501 206.921 139.133C203.823 133.765 206.617 128.238 209.823 127.23C213.029 126.221 216.462 128.807 216.462 128.807L214.146 123.051C214.146 123.051 228.99 96.4667 240.203 114.7Z" fill="#FCBCA9"/>
<path d="M215.261 136.93C215.122 136.93 214.983 136.882 214.869 136.785L208.467 131.305C208.214 131.088 208.184 130.707 208.401 130.454C208.619 130.2 209 130.172 209.252 130.388L215.654 135.868C215.907 136.085 215.937 136.466 215.719 136.719C215.6 136.858 215.431 136.93 215.261 136.93Z" fill="#222222"/>
<path d="M209.054 136.32C208.765 136.32 208.51 136.111 208.46 135.816C208.405 135.488 208.626 135.176 208.954 135.12L213.542 134.346C213.873 134.289 214.182 134.511 214.238 134.84C214.293 135.169 214.072 135.48 213.743 135.536L209.156 136.31C209.121 136.316 209.088 136.32 209.054 136.32Z" fill="#222222"/>
<path d="M237.873 136.32C237.825 136.32 237.778 136.314 237.731 136.302C237.407 136.224 237.207 135.898 237.285 135.575C238.365 131.094 235.601 128.37 235.573 128.343C235.333 128.112 235.326 127.73 235.556 127.49C235.787 127.249 236.171 127.242 236.41 127.473C236.544 127.603 239.699 130.71 238.459 135.857C238.392 136.133 238.144 136.32 237.873 136.32Z" fill="#222222"/>
<path d="M240.955 129.405C240.67 129.405 240.416 129.201 240.362 128.91L239.709 125.359C239.649 125.031 239.866 124.717 240.194 124.656C240.52 124.6 240.836 124.813 240.897 125.141L241.55 128.692C241.61 129.02 241.393 129.334 241.065 129.395C241.028 129.401 240.991 129.405 240.955 129.405Z" fill="#222222"/>
<path d="M231.364 128.781C231.078 128.781 230.825 128.577 230.771 128.285L230.118 124.735C230.058 124.408 230.275 124.093 230.602 124.032C230.932 123.974 231.244 124.189 231.305 124.517L231.959 128.067C232.018 128.395 231.802 128.709 231.473 128.77C231.437 128.776 231.4 128.781 231.364 128.781Z" fill="#222222"/>
<path d="M241.434 119.11C241.434 119.11 240.048 115.929 236.276 115.583C232.503 115.238 230.074 117.71 230.074 117.71C230.074 117.71 231.191 124.206 225.773 127.147C220.354 130.089 216.462 128.807 216.462 128.807L212.852 127.165L210.581 121.494L222.335 110.8L236.899 104.623L242.393 110.532L241.434 119.11Z" fill="#222222"/>
<path d="M229.456 165.406C220.388 165.406 214.256 159.61 214.184 159.541C213.944 159.309 213.938 158.928 214.169 158.688C214.399 158.447 214.784 158.441 215.022 158.671C215.102 158.748 223.15 166.335 234.306 163.608C234.626 163.529 234.956 163.727 235.035 164.052C235.114 164.376 234.915 164.703 234.592 164.781C232.798 165.22 231.079 165.406 229.456 165.406Z" fill="#A37B90"/>
<path d="M227.11 105.608C227.11 105.608 227.328 97.194 218.22 100.153C209.111 103.112 208.86 114.596 208.86 114.596L227.11 105.608Z" fill="#222222"/>
<path d="M241.957 121.899H239.105C238.772 121.899 238.501 121.629 238.501 121.296C238.501 120.963 238.772 120.692 239.105 120.692H241.957C242.291 120.692 242.561 120.963 242.561 121.296C242.561 121.629 242.291 121.899 241.957 121.899Z" fill="#222222"/>
<path d="M228.867 122.764C228.561 122.764 228.299 122.534 228.267 122.224C228.232 121.892 228.473 121.595 228.804 121.56L233.475 121.07C233.823 121.03 234.104 121.276 234.138 121.607C234.172 121.939 233.932 122.236 233.601 122.27L228.93 122.761C228.91 122.763 228.888 122.764 228.867 122.764Z" fill="#222222"/>
<path d="M189.724 214.405C189.696 214.405 189.667 214.403 189.638 214.399C189.308 214.352 189.079 214.046 189.125 213.716L190.174 206.36C190.221 206.03 190.527 205.803 190.857 205.848C191.187 205.895 191.417 206.2 191.369 206.53L190.321 213.887C190.278 214.187 190.02 214.405 189.724 214.405Z" fill="#A37B90"/>
<path d="M290.216 153.433L281.801 188.908L274.533 229.381C274.533 229.381 297.781 234.789 306.306 220.399C314.831 206.01 310.32 167.295 310.32 167.295L290.216 153.433Z" fill="#FCBCA9"/>
<path d="M301.742 392.465C301.742 392.465 306.53 411.416 310.449 413.426C314.367 415.434 331.216 426.113 340.352 435.781C348.013 443.886 340.295 448.487 340.295 448.487L287.093 448.248L241.509 414.444L258.005 379.571L301.742 392.465Z" fill="#F7B369"/>
<path d="M317.571 398.585C317.571 398.585 324.853 294.206 310.934 269.462C301.253 252.251 275.72 250.98 258.404 249.608C251.707 249.078 244.978 249.133 238.281 249.669L185.293 253.913C185.293 253.913 173.694 291.354 194.301 302.205C210.785 310.885 250.9 318.561 250.9 318.561L249.124 391.469L317.571 398.585Z" fill="#92B4EA"/>
<path d="M195.537 272.162C195.286 272.162 195.052 272.005 194.967 271.755C194.858 271.438 195.026 271.095 195.341 270.987C195.445 270.951 205.7 267.336 204.49 259.731C204.438 259.401 204.662 259.092 204.992 259.039C205.317 258.982 205.629 259.211 205.683 259.541C207.052 268.149 195.846 272.091 195.732 272.13C195.668 272.152 195.602 272.162 195.537 272.162Z" fill="#40507F"/>
<path d="M253.193 162.2L284.049 179.432L283.398 232.123C283.398 232.123 260.516 237.067 255.238 225.628C246.863 207.473 253.193 162.2 253.193 162.2Z" fill="#5C69A5"/>
<path d="M241.336 164.937C241.336 164.937 245.548 184.053 240.459 192.736C235.37 201.42 216.385 213.99 211.491 234.69C207.701 250.719 206.13 270.082 206.13 270.082L235.982 274.94C235.982 274.94 238.931 249.987 242.196 241.768C246.964 229.762 264.516 212.109 269.499 199.841C274.482 187.573 270.938 169.756 270.938 169.756L241.336 164.937Z" fill="white"/>
<path d="M234.816 263.858L213.071 259.819L213.606 256.934L235.352 260.974L234.816 263.858Z" fill="#EEECF1"/>
<path d="M246.195 225.104L224.364 221.551L224.835 218.655L246.667 222.208L246.195 225.104Z" fill="#EEECF1"/>
<path d="M270.465 189.455L248.433 187.507L248.691 184.584L270.723 186.532L270.465 189.455Z" fill="#EEECF1"/>
<path d="M241.956 232.589L220.126 229.035L220.597 226.14L242.428 229.693L241.956 232.589Z" fill="#EEECF1"/>
<path d="M270.672 182.619L248.639 180.672L248.898 177.749L270.93 179.696L270.672 182.619Z" fill="#EEECF1"/>
<path d="M364.387 140.953C364.387 158.849 349.881 173.358 331.983 173.358C322.924 173.358 314.733 169.64 308.853 163.647C303.117 157.801 299.58 149.79 299.58 140.953C299.58 123.057 314.088 108.548 331.983 108.548C349.881 108.548 364.387 123.057 364.387 140.953Z" fill="#FCA338"/>
<path d="M358.829 140.953C358.829 155.779 346.81 167.798 331.983 167.798C317.158 167.798 305.139 155.779 305.139 140.953C305.139 126.127 317.158 114.108 331.983 114.108C346.81 114.108 358.829 126.127 358.829 140.953Z" fill="#FFB655"/>
<path d="M311.12 132.84C311.076 132.84 311.031 132.835 310.986 132.824C310.685 132.751 310.5 132.447 310.573 132.146C310.657 131.801 312.727 123.676 321.59 120.287C321.879 120.176 322.204 120.32 322.315 120.611C322.426 120.9 322.28 121.225 321.99 121.336C313.673 124.517 311.685 132.333 311.666 132.411C311.603 132.668 311.373 132.84 311.12 132.84Z" fill="#FFF2BB"/>
<path d="M235.394 254.716L221.063 252.053L221.759 248.303L236.091 250.965L235.394 254.716Z" fill="#EEECF1"/>
<path d="M236.723 246.728L222.391 244.066L223.088 240.316L237.42 242.978L236.723 246.728Z" fill="#EEECF1"/>
<path d="M240.996 239.007L226.664 236.345L227.361 232.595L241.693 235.258L240.996 239.007Z" fill="#EEECF1"/>
<path d="M252.534 219.151L238.147 216.809L238.76 213.044L253.147 215.386L252.534 219.151Z" fill="#EEECF1"/>
<path d="M267.608 197.236L253.088 195.952L253.424 192.153L267.944 193.436L267.608 197.236Z" fill="#EEECF1"/>
<path d="M150.151 215.968C150.151 215.968 143.037 238.315 160.606 248.245C178.175 258.175 230.028 230.957 230.028 230.957L222.37 210.316L183.631 214.253C183.631 214.253 155.738 214.245 150.151 215.968Z" fill="#FCBCA9"/>
<path d="M261.214 307.886C258.886 307.886 254.564 313.132 251.874 317.134C254.534 316.716 260.54 315.47 262.411 312.539C263.022 311.583 263.119 310.543 262.708 309.36C262.235 307.995 261.591 307.921 261.38 307.896C261.325 307.889 261.27 307.886 261.214 307.886ZM250.645 318.514C250.437 318.514 250.243 318.405 250.132 318.227C250.011 318.03 250.012 317.783 250.136 317.587C250.873 316.424 257.465 306.236 261.518 306.696C262.586 306.82 263.37 307.583 263.85 308.964C264.381 310.498 264.24 311.919 263.428 313.191C260.696 317.466 251.112 318.469 250.705 318.51C250.686 318.513 250.666 318.514 250.645 318.514Z" fill="#40507F"/>
<path d="M234.179 200.354L229.354 205.422L243.105 209.81C243.105 209.81 257.041 214.768 258.644 217.413C260.247 220.058 253.772 221.149 253.772 221.149C253.772 221.149 263.82 224.501 259.809 227.726C255.796 230.95 248.483 229.279 248.483 229.279C248.483 229.279 258.615 232.116 253.447 235.565C250.652 237.429 225.219 235.667 213.474 226.82C201.73 217.972 213.053 212.083 213.053 212.083C213.053 212.083 219.382 197.693 234.179 200.354Z" fill="#FCBCA9"/>
<path d="M253.717 220.793C253.652 220.793 253.586 220.782 253.521 220.759L238.358 215.537C238.042 215.429 237.875 215.086 237.984 214.77C238.092 214.455 238.437 214.286 238.751 214.396L253.914 219.619C254.229 219.727 254.397 220.07 254.288 220.386C254.202 220.636 253.969 220.793 253.717 220.793Z" fill="#222222"/>
<path d="M249.738 229.793C249.681 229.793 249.623 229.785 249.565 229.767L236.249 225.77C235.93 225.675 235.748 225.338 235.844 225.019C235.94 224.7 236.276 224.519 236.595 224.614L249.912 228.611C250.231 228.707 250.413 229.044 250.317 229.362C250.239 229.625 249.999 229.793 249.738 229.793Z" fill="#222222"/>
<path d="M232.832 140.003C232.995 140.723 233.409 141.776 234.448 141.98C235.386 142.165 236.201 141.236 236.658 140.554L232.832 140.003ZM234.706 143.129C234.552 143.129 234.395 143.114 234.231 143.082C231.759 142.597 231.611 139.493 231.606 139.362C231.6 139.194 231.667 139.033 231.791 138.922C231.915 138.81 232.079 138.758 232.247 138.783L237.644 139.56C237.82 139.585 237.973 139.692 238.058 139.848C238.142 140.005 238.149 140.192 238.073 140.354C238.017 140.474 236.761 143.129 234.706 143.129Z" fill="#222222"/>
<path d="M374.49 420.8C374.481 420.8 359.663 420.562 359.663 420.562C359.329 420.555 359.065 420.282 359.068 419.948C359.074 419.617 359.345 419.353 359.672 419.353C359.682 419.353 374.504 419.591 374.504 419.591C374.834 419.598 375.102 419.871 375.095 420.206C375.089 420.533 374.821 420.8 374.49 420.8Z" fill="#F7B369"/>
<path d="M290.216 153.433C290.216 153.433 292.306 143.363 292.626 139.804C293.023 135.38 302.126 129.097 304.767 131.011C307.408 132.924 301.018 141.908 301.018 141.908C301.018 141.908 307.157 162.914 298.806 165.066C290.456 167.219 290.216 153.433 290.216 153.433Z" fill="#FCBCA9"/>
<path d="M303.349 159.724C303.293 159.724 303.234 159.716 303.177 159.698C302.857 159.603 302.676 159.267 302.771 158.947C304.582 152.88 300.78 143.277 300.741 143.181C300.616 142.871 300.767 142.519 301.076 142.396C301.389 142.273 301.737 142.422 301.861 142.731C302.026 143.14 305.858 152.826 303.928 159.292C303.85 159.554 303.61 159.724 303.349 159.724Z" fill="#222222"/>
<path d="M617.098 270.448C617.098 289.766 601.434 305.428 582.115 305.428C562.796 305.428 547.137 289.766 547.137 270.448C547.137 251.129 562.796 235.468 582.115 235.468C601.434 235.468 617.098 251.129 617.098 270.448Z" fill="#EEECF1"/>
<path d="M597.648 270.448C597.648 279.025 590.689 285.977 582.115 285.977C573.54 285.977 566.587 279.025 566.587 270.448C566.587 261.871 573.54 254.918 582.115 254.918C590.689 254.918 597.648 261.871 597.648 270.448Z" fill="#DDD7E0"/>
<path d="M186.465 272.753C186.465 292.073 170.804 307.733 151.485 307.733C132.166 307.733 116.504 292.073 116.504 272.753C116.504 253.434 132.166 237.773 151.485 237.773C170.804 237.773 186.465 253.434 186.465 272.753Z" fill="#EEECF1"/>
<path d="M167.014 272.753C167.014 281.33 160.061 288.283 151.485 288.283C142.908 288.283 135.955 281.33 135.955 272.753C135.955 264.177 142.908 257.224 151.485 257.224C160.061 257.224 167.014 264.177 167.014 272.753Z" fill="#DDD7E0"/>
<path d="M700.244 249.982C691.199 268.192 676.272 279.183 666.903 274.53C657.534 269.877 657.278 251.342 666.323 233.132C675.368 214.921 690.295 203.931 699.664 208.584C709.033 213.236 709.289 231.771 700.244 249.982Z" fill="#90A38D"/>
<path d="M603.609 248.671C621.328 258.646 631.533 274.12 626.399 283.234C621.27 292.349 602.746 291.651 585.027 281.676C567.308 271.701 557.102 256.226 562.237 247.113C567.366 237.998 585.89 238.696 603.609 248.671Z" fill="#90A38D"/>
<path d="M599.902 322.277C584.996 320.028 573.849 311.989 575.004 304.322C576.16 296.654 589.184 292.262 604.09 294.511C618.996 296.76 630.143 304.799 628.987 312.466C627.832 320.133 614.808 324.526 599.902 322.277Z" fill="#90A38D"/>
<path d="M685.934 269.766C702.174 257.527 720.441 254.376 726.736 262.728C733.031 271.081 724.969 287.773 708.73 300.012C692.496 312.25 674.228 315.402 667.933 307.049C661.638 298.697 669.7 282.005 685.934 269.766Z" fill="#90A38D"/>
<path d="M645.875 336.045C645.618 336.045 645.383 335.877 645.3 335.619C634.597 300.992 597.643 306.194 597.267 306.247C596.943 306.285 596.629 306.069 596.582 305.741C596.529 305.412 596.759 305.103 597.084 305.053C597.471 304.997 635.439 299.632 646.455 335.262C646.554 335.581 646.371 335.918 646.058 336.017C646 336.036 645.937 336.045 645.875 336.045Z" fill="#507849"/>
<path d="M648.965 333.443C648.688 333.443 648.437 333.255 648.374 332.975C638.497 290.628 601.559 266.589 601.188 266.351C600.906 266.172 600.822 265.799 601.005 265.518C601.183 265.235 601.554 265.156 601.836 265.334C602.213 265.575 639.564 289.863 649.55 332.702C649.623 333.026 649.425 333.351 649.095 333.427C649.054 333.437 649.007 333.443 648.965 333.443Z" fill="#507849"/>
<path d="M646.46 350.504C646.162 350.504 645.901 350.282 645.864 349.976C640.563 308.461 683.911 233.845 684.345 233.097C684.517 232.807 684.883 232.713 685.171 232.88C685.464 233.049 685.558 233.419 685.39 233.706C684.951 234.451 641.812 308.715 647.061 349.823C647.103 350.154 646.868 350.457 646.533 350.498C646.512 350.504 646.486 350.504 646.46 350.504Z" fill="#507849"/>
<path d="M650.815 330.392C650.789 330.392 650.763 330.389 650.737 330.386C650.402 330.341 650.172 330.039 650.214 329.708C650.256 329.399 654.909 298.561 704.741 275.686C705.044 275.544 705.405 275.679 705.546 275.982C705.682 276.285 705.551 276.644 705.248 276.781C656.075 299.355 651.453 329.565 651.411 329.867C651.37 330.17 651.113 330.392 650.815 330.392Z" fill="#507849"/>
<path d="M674.882 394.708H632.961C630.692 394.708 628.788 393.088 628.564 390.963L622.154 329.896C621.892 327.456 623.936 325.341 626.545 325.341H681.292C683.906 325.341 685.95 327.456 685.694 329.896L679.279 390.963C679.059 393.088 677.156 394.708 674.882 394.708Z" fill="#BBAFC0"/>
<path d="M665.606 394.708H623.686C621.411 394.708 619.508 393.088 619.283 390.963L612.873 329.896C612.617 327.456 614.661 325.341 617.27 325.341H672.016C674.631 325.341 676.67 327.456 676.413 329.896L669.998 390.963C669.779 393.088 667.876 394.708 665.606 394.708Z" fill="#DDD7E0"/>
<path d="M136.144 286.6H47.5158C42.6337 286.6 38.6754 282.642 38.6754 277.76C38.6754 272.877 42.6337 268.919 47.5158 268.919H136.144C141.026 268.919 144.984 272.877 144.984 277.76C144.984 282.642 141.026 286.6 136.144 286.6Z" fill="#DDD7E0"/>
<path d="M59.0167 394.736C56.3585 394.736 54.2035 392.583 54.2035 389.923V283.733C54.2035 281.074 56.3585 278.92 59.0167 278.92C61.6748 278.92 63.8299 281.074 63.8299 283.733V389.923C63.8299 392.583 61.6748 394.736 59.0167 394.736Z" fill="#DDD7E0"/>
<path d="M125.592 394.736C122.934 394.736 120.779 392.583 120.779 389.923V283.733C120.779 281.074 122.934 278.92 125.592 278.92C128.25 278.92 130.405 281.074 130.405 283.733V389.923C130.405 392.583 128.25 394.736 125.592 394.736Z" fill="#DDD7E0"/>
<path d="M97.7086 268.919H120.083V239.664H97.7086V268.919Z" fill="#BBAFC0"/>
<path d="M120.083 239.665C120.083 240.375 115.074 240.95 108.896 240.95C102.717 240.95 97.7086 240.375 97.7086 239.665C97.7086 238.955 102.717 238.379 108.896 238.379C115.074 238.379 120.083 238.955 120.083 239.665Z" fill="#DDD7E0"/>
<path d="M120.084 247.02C116.563 247.02 113.697 250.98 113.697 255.846C113.697 260.713 116.563 264.673 120.084 264.673C123.604 264.673 126.468 260.713 126.468 255.846C126.468 250.98 123.604 247.02 120.084 247.02ZM120.084 266.65C115.472 266.65 111.719 261.805 111.719 255.846C111.719 249.889 115.472 245.044 120.084 245.044C124.695 245.044 128.445 249.889 128.445 255.846C128.445 261.805 124.695 266.65 120.084 266.65Z" fill="#BBAFC0"/>
<path d="M378.346 418.182H364.467C364.133 418.182 363.862 417.911 363.862 417.578C363.862 417.244 364.133 416.973 364.467 416.973H378.346C378.68 416.973 378.951 417.244 378.951 417.578C378.951 417.911 378.68 418.182 378.346 418.182Z" fill="#F7B369"/>
<path d="M265.137 354.506C262.975 354.506 260.797 355.747 259.106 358.005C256.848 360.996 255.75 366.003 256.311 370.61C258.672 370.565 261.145 369.785 263.674 368.284C268.38 365.478 270.814 362.036 270.35 358.842C270.058 356.832 268.556 355.2 266.523 354.681C266.065 354.563 265.602 354.506 265.137 354.506ZM270.64 384.263C266.919 384.263 263.766 383.392 261.222 381.648C257.295 378.964 255.808 374.901 255.267 371.793C245.32 371.198 240.058 359.348 239.835 358.836C239.702 358.527 239.842 358.174 240.148 358.04C240.454 357.904 240.809 358.047 240.943 358.352C240.993 358.47 246.038 369.815 255.092 370.568C254.548 365.72 255.739 360.461 258.142 357.28C260.496 354.137 263.742 352.728 266.821 353.511C269.328 354.15 271.182 356.173 271.545 358.67C272.082 362.37 269.439 366.255 264.292 369.321C261.635 370.899 259.017 371.732 256.496 371.812C257.03 374.653 258.414 378.267 261.904 380.653C265.604 383.185 270.77 383.716 277.256 382.24C277.788 382.12 278.337 381.986 278.887 381.836C279.208 381.744 279.541 381.935 279.629 382.256C279.717 382.578 279.528 382.912 279.206 382.997C278.638 383.153 278.07 383.293 277.522 383.417C275.05 383.98 272.752 384.263 270.64 384.263Z" fill="#222222"/>
<path d="M331.983 473.819C331.916 473.819 331.849 473.806 331.782 473.781L312.142 466.244C311.852 466.133 311.708 465.809 311.819 465.519C311.931 465.23 312.259 465.083 312.545 465.195L332.186 472.731C332.476 472.843 332.619 473.167 332.508 473.456C332.422 473.682 332.209 473.819 331.983 473.819Z" fill="white"/>
<path d="M393.085 484.381C393.038 484.381 392.986 484.374 392.936 484.362L374.115 479.163C373.817 479.081 373.638 478.772 373.721 478.473C373.804 478.174 374.109 477.996 374.414 478.082L393.235 483.28C393.534 483.36 393.708 483.671 393.626 483.97C393.559 484.218 393.333 484.381 393.085 484.381Z" fill="white"/>
<path d="M404.814 476.208C404.63 476.208 404.445 476.113 404.34 475.944C404.175 475.68 404.254 475.333 404.519 475.168L421.211 464.73C421.475 464.571 421.821 464.648 421.983 464.908C422.149 465.172 422.07 465.519 421.806 465.684L405.114 476.122C405.021 476.179 404.92 476.208 404.814 476.208Z" fill="white"/>
<path d="M510.308 482.905C510.308 487.359 451.601 490.969 379.18 490.969C306.76 490.969 248.052 487.359 248.052 482.905C248.052 478.451 306.76 474.84 379.18 474.84C451.601 474.84 510.308 478.451 510.308 482.905Z" fill="#DAD8DC"/>
<path d="M462.551 385.332C459.484 366.678 455.381 350.749 452.867 349.731C451.894 349.331 450.866 348.958 449.8 348.614C444.602 346.874 438.984 345.729 438.984 345.729C438.984 345.729 423.803 330.609 422.76 331.891C421.736 333.176 422.951 345.236 422.951 345.236C422.951 345.236 405.501 329.712 404.089 330.135C402.673 330.571 400.934 345.118 400.934 345.118C400.934 345.118 376.787 342.974 351.099 343.658C340.044 344.005 328.722 344.896 318.93 346.706C286.313 352.734 280.657 360.07 278.916 364.514C278.202 366.347 277.345 373.53 277.392 382.829C277.45 396.203 279.369 413.935 286.231 426.164C297.829 446.864 314.169 454.639 314.169 454.639C314.169 454.639 313.15 460.168 312.346 465.72C311.541 471.268 310.965 476.854 311.887 476.93C313.713 477.08 320.381 473.969 320.381 473.969C320.381 473.969 325.07 483.996 326.438 484.107C327.275 484.177 330.001 478.041 331.986 473.249C333.246 470.224 334.21 467.752 334.21 467.752C334.21 467.752 340.976 470.53 351.108 472.365L351.045 472.591C352.772 472.912 354.586 473.189 356.472 473.421C370.098 475.095 375.356 472.811 375.356 472.811C375.356 472.811 374.787 475.48 374.278 478.616C373.568 482.863 372.951 487.947 373.979 488.303C375.751 488.908 382.091 484.88 382.091 484.88C382.091 484.88 389.672 492.448 391.036 492.569C391.596 492.62 392.386 488.596 393.091 483.818C394.116 476.946 395.01 468.573 395.01 468.573L399.766 466.709C399.766 466.709 402.212 471.252 404.824 475.645C407.229 479.72 409.777 483.674 410.649 483.754C412.475 483.916 415.271 473.142 415.271 473.142C415.271 473.142 423.736 476.179 425.668 474.977C426.79 474.28 424.048 469.315 421.513 465.21C419.63 462.156 417.851 459.58 417.851 459.58L424.719 454.687C424.719 454.687 443.696 456.373 455.979 450.784C459.173 449.342 461.88 447.396 463.715 444.825C466.254 441.252 466.941 432.199 466.477 421.02C466.022 410.089 464.501 397.157 462.551 385.332Z" fill="#90A38D"/>
<path d="M487.585 397.768C489.137 426.002 475.206 449.724 456.465 450.755C437.724 451.786 421.274 429.736 419.722 401.503C418.169 373.269 432.103 349.546 450.841 348.516C469.581 347.485 486.032 369.538 487.585 397.768Z" fill="#F7B369"/>
<path d="M474.038 398.516C474.815 412.609 472.833 424.179 469.617 424.357C466.4 424.532 463.165 413.251 462.392 399.155C461.616 385.059 463.594 373.492 466.811 373.313C470.027 373.136 473.263 384.42 474.038 398.516Z" fill="#222222"/>
<path d="M454.089 400.555C456.491 414.463 455.867 426.186 452.692 426.733C449.517 427.284 444.997 416.452 442.595 402.54C440.19 388.632 440.817 376.909 443.992 376.361C447.163 375.814 451.684 386.643 454.089 400.555Z" fill="#222222"/>
<path d="M404.76 391.749C404.487 391.749 404.239 391.561 404.172 391.284L401.665 380.729C401.592 380.405 401.789 380.08 402.114 380.001C402.441 379.93 402.762 380.128 402.842 380.452L405.349 391.008C405.425 391.329 405.225 391.657 404.9 391.733C404.853 391.743 404.805 391.749 404.76 391.749Z" fill="#222222"/>
<path d="M393.152 441.005C393.076 441.005 392.996 440.992 392.923 440.96C392.614 440.829 392.468 440.476 392.595 440.171L397.418 428.543C397.546 428.235 397.905 428.088 398.207 428.216C398.515 428.346 398.662 428.7 398.532 429.005L393.708 440.632C393.613 440.864 393.387 441.005 393.152 441.005Z" fill="#222222"/>
<path d="M424.723 455.288C424.691 455.288 424.659 455.285 424.627 455.282C424.405 455.247 402.362 451.604 395.01 434.83C394.876 434.524 395.016 434.168 395.322 434.035C395.627 433.901 395.983 434.041 396.117 434.346C403.205 450.52 424.599 454.054 424.815 454.089C425.143 454.14 425.369 454.449 425.318 454.779C425.27 455.075 425.012 455.288 424.723 455.288Z" fill="#222222"/>
<path d="M378.569 352.613C378.582 352.798 378.569 352.983 378.557 353.154C378.397 354.898 376.985 356.322 375.191 356.402L368.787 356.758L360.309 357.223L345.656 358.04C345.643 358.066 330.141 359.017 330.141 359.017L321.679 359.545L319.067 359.704C317.085 359.822 315.369 358.304 315.25 356.322C315.237 356.138 315.25 355.979 315.263 355.807C315.342 354.818 315.831 353.934 316.557 353.326C317.125 352.852 317.838 352.546 318.631 352.508L322.579 352.27L348.071 350.714C348.083 350.685 367.005 349.658 367.005 349.658L373.46 349.299L374.78 349.235C376.762 349.101 378.464 350.634 378.569 352.613Z" fill="#222222"/>
<path d="M376.326 335.978C376.326 340.731 375.308 345.232 373.46 349.299C372.245 352.006 370.673 354.516 368.787 356.758L360.309 357.223L345.656 358.04C345.643 358.066 330.141 359.017 330.141 359.017L321.679 359.545C319.713 357.697 317.996 355.61 316.557 353.326C313.362 348.309 311.514 342.357 311.514 335.978C311.514 318.089 326.024 303.579 343.913 303.579C361.817 303.579 376.326 318.089 376.326 335.978Z" fill="#FCA338"/>
<path d="M370.765 335.978C370.765 340.97 369.394 345.643 367.005 349.658C365.288 352.588 363.003 355.162 360.309 357.223L345.656 358.04C345.643 358.066 330.141 359.017 330.141 359.017C327.211 357.274 324.637 354.964 322.579 352.27C319.131 347.755 317.072 342.105 317.072 335.978C317.072 321.151 329.088 309.138 343.913 309.138C358.74 309.138 370.765 321.151 370.765 335.978Z" fill="#FFB655"/>
<path d="M323.053 328.086C322.993 328.086 322.929 328.076 322.868 328.064C322.452 327.962 322.194 327.539 322.296 327.122C322.382 326.772 324.478 318.542 333.446 315.111C333.844 314.959 334.295 315.159 334.452 315.56C334.604 315.962 334.404 316.412 334.003 316.566C325.789 319.706 323.826 327.412 323.81 327.491C323.721 327.847 323.403 328.086 323.053 328.086Z" fill="#FFDD92"/>
<path d="M326.371 140.439C325.132 140.439 324.129 139.985 323.362 139.078C322.611 138.153 322.236 136.95 322.236 135.467C322.236 133.984 322.611 132.789 323.362 131.882C324.129 130.957 325.132 130.495 326.371 130.495C327.592 130.495 328.587 130.948 329.354 131.855C330.122 132.763 330.506 133.966 330.506 135.467C330.506 136.967 330.122 138.171 329.354 139.078C328.587 139.985 327.592 140.439 326.371 140.439ZM337.467 130.626H339.01L326.502 148.944H324.958L337.467 130.626ZM326.371 139.261C327.226 139.261 327.906 138.93 328.412 138.267C328.936 137.586 329.197 136.653 329.197 135.467C329.197 134.28 328.936 133.356 328.412 132.693C327.906 132.012 327.226 131.672 326.371 131.672C325.499 131.672 324.81 132.012 324.304 132.693C323.798 133.373 323.545 134.298 323.545 135.467C323.545 136.636 323.798 137.56 324.304 138.241C324.81 138.921 325.499 139.261 326.371 139.261ZM337.597 149.074C336.376 149.074 335.382 148.621 334.614 147.714C333.847 146.789 333.463 145.585 333.463 144.102C333.463 142.619 333.847 141.424 334.614 140.517C335.382 139.593 336.376 139.13 337.597 139.13C338.836 139.13 339.83 139.593 340.581 140.517C341.348 141.424 341.732 142.619 341.732 144.102C341.732 145.585 341.348 146.789 340.581 147.714C339.83 148.621 338.836 149.074 337.597 149.074ZM337.597 147.897C338.47 147.897 339.159 147.557 339.665 146.876C340.171 146.196 340.424 145.271 340.424 144.102C340.424 142.933 340.171 142.009 339.665 141.328C339.159 140.648 338.47 140.308 337.597 140.308C336.743 140.308 336.053 140.648 335.53 141.328C335.024 141.991 334.771 142.916 334.771 144.102C334.771 145.289 335.024 146.222 335.53 146.902C336.053 147.565 336.743 147.897 337.597 147.897Z" fill="#2B2A29"/>
<path d="M437.035 226.213C436.264 226.213 435.64 225.931 435.162 225.366C434.695 224.791 434.462 224.042 434.462 223.119C434.462 222.196 434.695 221.452 435.162 220.887C435.64 220.312 436.264 220.024 437.035 220.024C437.795 220.024 438.414 220.306 438.892 220.871C439.37 221.435 439.609 222.185 439.609 223.119C439.609 224.052 439.37 224.802 438.892 225.366C438.414 225.931 437.795 226.213 437.035 226.213ZM443.941 220.105H444.902L437.117 231.507H436.156L443.941 220.105ZM437.035 225.48C437.567 225.48 437.991 225.274 438.306 224.861C438.631 224.438 438.794 223.857 438.794 223.119C438.794 222.38 438.631 221.805 438.306 221.392C437.991 220.969 437.567 220.757 437.035 220.757C436.492 220.757 436.063 220.969 435.748 221.392C435.434 221.816 435.276 222.391 435.276 223.119C435.276 223.846 435.434 224.422 435.748 224.845C436.063 225.269 436.492 225.48 437.035 225.48ZM444.023 231.588C443.263 231.588 442.644 231.306 442.166 230.741C441.688 230.166 441.449 229.416 441.449 228.493C441.449 227.571 441.688 226.827 442.166 226.262C442.644 225.687 443.263 225.399 444.023 225.399C444.794 225.399 445.412 225.687 445.879 226.262C446.357 226.827 446.596 227.571 446.596 228.493C446.596 229.416 446.357 230.166 445.879 230.741C445.412 231.306 444.794 231.588 444.023 231.588ZM444.023 230.855C444.566 230.855 444.994 230.643 445.309 230.22C445.624 229.797 445.782 229.221 445.782 228.493C445.782 227.766 445.624 227.19 445.309 226.767C444.994 226.344 444.566 226.132 444.023 226.132C443.491 226.132 443.062 226.344 442.736 226.767C442.421 227.18 442.264 227.755 442.264 228.493C442.264 229.232 442.421 229.813 442.736 230.236C443.062 230.649 443.491 230.855 444.023 230.855Z" fill="#2B2A29"/>
<path d="M334.236 326.54V338.103H333.047V327.598H330.322V326.54H334.236ZM341.609 338.202C340.717 338.202 339.918 337.965 339.214 337.492C338.52 337.018 337.975 336.341 337.578 335.46C337.193 334.568 337 333.522 337 332.322C337 331.121 337.193 330.081 337.578 329.2C337.975 328.308 338.52 327.625 339.214 327.152C339.918 326.678 340.717 326.441 341.609 326.441C342.501 326.441 343.294 326.678 343.987 327.152C344.692 327.625 345.243 328.308 345.639 329.2C346.036 330.081 346.234 331.121 346.234 332.322C346.234 333.522 346.036 334.568 345.639 335.46C345.243 336.341 344.692 337.018 343.987 337.492C343.294 337.965 342.501 338.202 341.609 338.202ZM341.609 337.112C342.28 337.112 342.87 336.925 343.376 336.55C343.894 336.176 344.296 335.631 344.582 334.915C344.868 334.199 345.011 333.335 345.011 332.322C345.011 331.309 344.868 330.444 344.582 329.728C344.296 329.013 343.894 328.468 343.376 328.093C342.87 327.719 342.28 327.532 341.609 327.532C340.937 327.532 340.342 327.719 339.825 328.093C339.318 328.468 338.922 329.013 338.636 329.728C338.349 330.444 338.206 331.309 338.206 332.322C338.206 333.335 338.349 334.199 338.636 334.915C338.922 335.631 339.318 336.176 339.825 336.55C340.342 336.925 340.937 337.112 341.609 337.112ZM352.545 338.202C351.653 338.202 350.855 337.965 350.15 337.492C349.456 337.018 348.911 336.341 348.515 335.46C348.13 334.568 347.937 333.522 347.937 332.322C347.937 331.121 348.13 330.081 348.515 329.2C348.911 328.308 349.456 327.625 350.15 327.152C350.855 326.678 351.653 326.441 352.545 326.441C353.437 326.441 354.23 326.678 354.924 327.152C355.629 327.625 356.179 328.308 356.576 329.2C356.972 330.081 357.17 331.121 357.17 332.322C357.17 333.522 356.972 334.568 356.576 335.46C356.179 336.341 355.629 337.018 354.924 337.492C354.23 337.965 353.437 338.202 352.545 338.202ZM352.545 337.112C353.217 337.112 353.806 336.925 354.313 336.55C354.83 336.176 355.232 335.631 355.519 334.915C355.805 334.199 355.948 333.335 355.948 332.322C355.948 331.309 355.805 330.444 355.519 329.728C355.232 329.013 354.83 328.468 354.313 328.093C353.806 327.719 353.217 327.532 352.545 327.532C351.874 327.532 351.279 327.719 350.761 328.093C350.255 328.468 349.858 329.013 349.572 329.728C349.286 330.444 349.143 331.309 349.143 332.322C349.143 333.335 349.286 334.199 349.572 334.915C349.858 335.631 350.255 336.176 350.761 336.55C351.279 336.925 351.874 337.112 352.545 337.112Z" fill="#2B2A29"/>
<path d="M338.541 343.771H337.025V347.297H336.484V343.771H334.969V343.291H338.541V343.771ZM341.006 344.707C341.509 344.712 341.892 344.824 342.156 345.042C342.42 345.261 342.552 345.576 342.552 345.987C342.552 346.413 342.41 346.741 342.125 346.969C341.841 347.198 341.435 347.31 340.907 347.305L339.323 347.297V343.291H339.863V344.692L341.006 344.707ZM343.222 343.291H343.763V347.297H343.222V343.291ZM340.876 346.893C341.247 346.898 341.526 346.825 341.714 346.672C341.907 346.515 342.004 346.286 342.004 345.987C342.004 345.692 341.91 345.474 341.722 345.332C341.534 345.19 341.252 345.116 340.876 345.111L339.863 345.096V346.878L340.876 346.893ZM350.832 343.291V347.297H345.303V343.291H345.843V346.825H347.808V343.291H348.349V346.825H350.291V343.291H350.832ZM351.449 346.825V348.173H350.939V347.297H350.261V346.825H351.449ZM352.414 347.335C352.302 347.335 352.206 347.294 352.125 347.213C352.049 347.132 352.01 347.033 352.01 346.916C352.01 346.799 352.049 346.703 352.125 346.627C352.206 346.545 352.302 346.505 352.414 346.505C352.526 346.505 352.622 346.545 352.704 346.627C352.785 346.703 352.825 346.799 352.825 346.916C352.825 347.033 352.785 347.132 352.704 347.213C352.622 347.294 352.526 347.335 352.414 347.335Z" fill="#2B2A29"/>
</g>
<defs>
<clipPath id="clip0_1_5">
<rect width="767" height="528.088" fill="white"/>
</clipPath>
</defs>
</svg>
