<svg width="120" height="121" viewBox="0 0 120 121" fill="none" xmlns="http://www.w3.org/2000/svg">
<g clip-path="url(#clip0_1817_2)">
<path d="M120 60.0018C120 93.1388 93.1391 120.003 59.9991 120.003C43.2254 120.003 28.0588 113.119 17.1706 102.022C6.55002 91.1972 0 76.3641 0 60.0018C0 26.8638 26.8638 0 59.9991 0C93.1391 0 120 26.8638 120 60.0018V60.0018Z" fill="#FCA338"/>
<path d="M109.708 60.0019C109.708 87.4532 87.4537 109.709 59.9983 109.709C32.5477 109.709 10.293 87.4532 10.293 60.0019C10.293 32.5484 32.5477 10.2939 59.9983 10.2939C87.4535 10.2939 109.708 32.5486 109.708 60.0019Z" fill="#FFB655"/>
<path d="M21.3682 44.9797C21.2859 44.9797 21.2037 44.97 21.1205 44.9499C20.5621 44.8143 20.2202 44.2517 20.3559 43.6933C20.5116 43.0553 24.3435 28.0102 40.7548 21.7348C41.2902 21.5303 41.8913 21.7967 42.0975 22.335C42.3037 22.8704 42.0327 23.4715 41.4964 23.6777C26.0956 29.5676 22.4142 44.0397 22.3783 44.1848C22.2631 44.6612 21.8361 44.9795 21.3684 44.9795L21.3682 44.9797Z" fill="#FFF2BB"/>
<path d="M49.936 61.854C47.5845 61.854 45.6801 60.9929 44.2228 59.2706C42.7986 57.5153 42.0866 55.23 42.0866 52.4148C42.0866 49.5996 42.7986 47.3309 44.2228 45.6086C45.6801 43.8533 47.5845 42.9756 49.936 42.9756C52.2544 42.9756 54.1422 43.8367 55.5995 45.559C57.0568 47.2812 57.7854 49.5665 57.7854 52.4148C57.7854 55.2631 57.0568 57.5484 55.5995 59.2706C54.1422 60.9929 52.2544 61.854 49.936 61.854ZM71.0003 43.224H73.9314L50.1844 78H47.2533L71.0003 43.224ZM49.936 59.6184C51.5589 59.6184 52.8506 58.9891 53.811 57.7306C54.8046 56.4389 55.3014 54.667 55.3014 52.4148C55.3014 50.1626 54.8046 48.4073 53.811 47.1487C52.8506 45.857 51.5589 45.2112 49.936 45.2112C48.28 45.2112 46.9718 45.857 46.0113 47.1487C45.0508 48.4404 44.5706 50.1958 44.5706 52.4148C44.5706 54.6338 45.0508 56.3892 46.0113 57.6809C46.9718 58.9726 48.28 59.6184 49.936 59.6184ZM71.2487 78.2484C68.9303 78.2484 67.0425 77.3873 65.5852 75.665C64.1279 73.9097 63.3993 71.6244 63.3993 68.8092C63.3993 65.994 64.1279 63.7253 65.5852 62.003C67.0425 60.2477 68.9303 59.37 71.2487 59.37C73.6002 59.37 75.4881 60.2477 76.9122 62.003C78.3695 63.7253 79.0982 65.994 79.0982 68.8092C79.0982 71.6244 78.3695 73.9097 76.9122 75.665C75.4881 77.3873 73.6002 78.2484 71.2487 78.2484ZM71.2487 76.0128C72.9047 76.0128 74.213 75.367 75.1734 74.0753C76.1339 72.7836 76.6142 71.0282 76.6142 68.8092C76.6142 66.5902 76.1339 64.8348 75.1734 63.5431C74.213 62.2514 72.9047 61.6056 71.2487 61.6056C69.6258 61.6056 68.3176 62.2514 67.324 63.5431C66.3635 64.8017 65.8833 66.557 65.8833 68.8092C65.8833 71.0614 66.3635 72.8333 67.324 74.125C68.3176 75.3835 69.6258 76.0128 71.2487 76.0128Z" fill="#2B2A29"/>
</g>
<defs>
<clipPath id="clip0_1817_2">
<rect width="120" height="120.003" fill="white"/>
</clipPath>
</defs>
</svg>
